:SAMPLES-PER-SECOND 30
:FULLY-SPECIFIED
:DEGREES
875
root  34.1453 39.298 6.65049 1.55762 66.936 6.55066
RightUpLeg  -12.2692 -8.39127 -13.5131
RightLeg  15.871 5.06184 1.323
RightFoot  2.73194 -0.911863 7.52871
RightToes  0.000481921 0.542163 -0.142578
Spine  19.3667 -1.50001 -3.30539
Spine1  10.0047 -3.11776 3.02
HEad  12.5583 17.3426 -6.1906
LeftShoulder1  4.51142 -9.93859 -27.4179
LeftArm  -19.5948 -29.1562 -27.2957
LeftForeArm  145.978 -80.7323 -113.291
LeftHand  -0.25398 0.0180481 5.50724
RightShoulder  6.12874 11.7023 34.345
RightArm  1.0424 16.3435 53.2838
RightForeArm  179.832 61.7696 162.581
RightHand  -0.204144 -0.382441 -4.6802
LeftUpLeg  -3.67986 33.4371 3.68293
LeftLeg  23.9273 12.0029 5.97809
LeftFoot  -9.6323 0.113014 -3.71863
LeftToes  1.06244e-005 4.65869e-005 -8.65518e-006
876
root  34.4725 39.6322 6.5109 2.97278 65.4526 7.18396
RightUpLeg  -10.7071 -8.76017 -13.6997
RightLeg  10.7443 6.71489 0.76704
RightFoot  4.95361 -1.11079 7.98939
RightToes  0.000481921 0.542163 -0.142578
Spine  17.2631 -1.96812 -1.8331
Spine1  11.5409 -2.76327 0.84484
HEad  11.6239 17.8613 -6.38657
LeftShoulder1  5.55966 -10.8907 -32.5958
LeftArm  -16.929 -16.7025 -28.2155
LeftForeArm  -163.231 -66.3043 -161.448
LeftHand  -0.25398 0.0180481 5.50724
RightShoulder  5.89461 11.2518 33.9926
RightArm  2.11691 8.90943 52.2498
RightForeArm  179.494 59.3587 164.083
RightHand  -0.268039 0.676348 -5.24161
LeftUpLeg  -1.74801 29.595 2.71241
LeftLeg  19.6098 17.7513 5.00226
LeftFoot  -8.13915 0.147098 -3.51048
LeftToes  1.06244e-005 4.65869e-005 -8.65518e-006
877
root  34.7288 39.8576 6.39485 3.87646 64.0013 7.10413
RightUpLeg  -9.69252 -9.47652 -13.5246
RightLeg  6.14239 8.49229 0.21707
RightFoot  7.11875 -1.27452 8.13154
RightToes  0.000481921 0.542163 -0.142578
Spine  15.5487 -2.16576 -0.783594
Spine1  12.0849 -2.39207 -0.587559
HEad  11.2231 18.78 -6.73462
LeftShoulder1  6.32999 -11.4502 -36.2463
LeftArm  -14.7365 -4.82541 -30.9094
LeftForeArm  -154.093 -55.1073 -168.547
LeftHand  -0.25398 0.0180481 5.50724
RightShoulder  5.50966 10.9705 32.1174
RightArm  3.52049 5.43502 51.4734
RightForeArm  -179.379 58.8864 164.446
RightHand  -0.210136 0.639352 -4.09183
LeftUpLeg  -0.521088 18.4217 2.1366
LeftLeg  16.5976 30.4572 3.12115
LeftFoot  -7.0233 0.175454 -3.53159
LeftToes  1.06244e-005 4.65869e-005 -8.65518e-006
878
root  34.9127 39.9687 6.31849 4.74426 62.3282 7.10095
RightUpLeg  -9.41443 -9.91742 -13.5711
RightLeg  2.96484 10.0778 0.0893708
RightFoot  8.58077 -1.44218 8.53327
RightToes  0.000481921 0.542163 -0.142578
Spine  14.7252 -1.7948 0.16589
Spine1  11.2029 -1.4332 -2.05499
HEad  11.4997 19.2504 -6.40685
LeftShoulder1  6.85722 -11.7982 -38.6352
LeftArm  -13.0461 4.03631 -34.6003
LeftForeArm  -153.939 -49.866 -170.459
LeftHand  -0.25398 0.0180481 5.50724
RightShoulder  5.15065 10.5126 30.7954
RightArm  4.61443 4.17487 49.4463
RightForeArm  -178.697 58.3902 164.791
RightHand  -0.127535 -0.219115 -2.85145
LeftUpLeg  0.190683 11.3768 1.53053
LeftLeg  13.9136 39.134 1.19623
LeftFoot  -6.41475 0.202121 -3.80286
LeftToes  1.06244e-005 4.65869e-005 -8.65518e-006
879
root  34.9889 39.9958 6.2809 5.71069 61.4948 7.50464
RightUpLeg  -9.58145 -10.4557 -13.9571
RightLeg  1.63826 11.0102 0.313385
RightFoot  9.04508 -1.60762 9.27241
RightToes  0.000481921 0.542163 -0.142578
Spine  14.5414 -1.26152 1.07144
Spine1  10.2499 -0.404769 -3.26742
HEad  11.6055 18.7812 -5.97886
LeftShoulder1  7.23542 -12.2383 -39.7312
LeftArm  -12.9341 7.85923 -37.0489
LeftForeArm  -159.235 -49.807 -170.105
LeftHand  -0.25398 0.0180481 5.50724
RightShoulder  4.89598 9.82022 30.7964
RightArm  5.29577 4.26269 46.6311
RightForeArm  -179.733 57.5568 165.176
RightHand  -0.146284 -0.36769 -3.2897
LeftUpLeg  0.445455 9.11621 1.02066
LeftLeg  12.0846 42.1996 -0.132873
LeftFoot  -6.24664 0.222777 -4.16736
LeftToes  1.06244e-005 4.65869e-005 -8.65518e-006
880
root  34.9276 39.9729 6.26671 6.56873 62.2643 8.08667
RightUpLeg  -9.90513 -11.0038 -14.3982
RightLeg  1.9869 10.6331 0.655423
RightFoot  8.80886 -1.65554 9.63959
RightToes  0.000481921 0.542163 -0.142578
Spine  14.7488 -1.17899 1.37061
Spine1  10.1932 -0.344636 -2.99594
HEad  10.6699 18.226 -6.84216
LeftShoulder1  7.43735 -12.5831 -39.9862
LeftArm  -13.7156 7.23638 -36.7725
LeftForeArm  -163.441 -51.7419 -169.108
LeftHand  -0.25398 0.0180481 5.50724
RightShoulder  4.76398 9.33584 31.1541
RightArm  5.32501 5.6987 44.3349
RightForeArm  178.779 57.2346 165.23
RightHand  -0.230984 0.35648 -4.72105
LeftUpLeg  -0.118985 10.1774 0.939376
LeftLeg  12.2935 40.4099 -0.282769
LeftFoot  -6.56485 0.220408 -4.33921
LeftToes  1.06244e-005 4.65869e-005 -8.65518e-006
881
root  34.7525 39.8952 6.26112 6.87158 64.3174 8.24438
RightUpLeg  -10.5084 -11.2297 -14.4774
RightLeg  3.83349 8.92725 0.915155
RightFoot  8.09407 -1.51666 9.1607
RightToes  0.000481921 0.542163 -0.142578
Spine  15.6825 -1.58132 0.925981
Spine1  10.1456 -1.41164 -0.849479
HEad  9.08034 18.4 -9.35094
LeftShoulder1  7.44283 -12.6104 -39.9439
LeftArm  -14.1338 4.4618 -34.5702
LeftForeArm  -162.57 -52.9679 -168.667
LeftHand  -0.25398 0.0180481 5.50724
RightShoulder  4.7199 9.27978 30.9723
RightArm  4.47016 7.21092 42.9653
RightForeArm  178.57 57.4001 165.123
RightHand  -0.28594 0.754258 -5.51155
LeftUpLeg  -1.88209 16.7066 1.08367
LeftLeg  14.8282 31.9179 1.32039
LeftFoot  -7.35369 0.18919 -4.16014
LeftToes  1.06244e-005 4.65869e-005 -8.65518e-006
882
root  34.5294 39.7287 6.28103 6.14856 67.063 7.29761
RightUpLeg  -11.6477 -11.1656 -13.9952
RightLeg  7.10769 6.33048 1.02239
RightFoot  6.68953 -1.28094 8.34718
RightToes  0.000481921 0.542163 -0.142578
Spine  17.4041 -2.03646 0.264422
Spine1  9.08586 -2.85252 2.40094
HEad  7.21364 18.983 -12.4703
LeftShoulder1  7.28385 -12.4569 -39.4203
LeftArm  -14.3868 1.44675 -32.6885
LeftForeArm  -159.944 -53.1473 -168.764
LeftHand  -0.25398 0.0180481 5.50724
RightShoulder  4.72034 9.3753 30.6976
RightArm  2.83887 6.51928 41.7809
RightForeArm  179.394 56.9123 165.453
RightHand  -0.309788 0.862773 -5.85695
LeftUpLeg  -5.07495 27.2826 0.600411
LeftLeg  18.455 18.5563 4.29902
LeftFoot  -8.36421 0.149107 -3.80891
LeftToes  1.06244e-005 4.65869e-005 -8.65518e-006
883
root  34.3232 39.4865 6.38226 4.46594 70.352 5.29675
RightUpLeg  -13.0195 -11.6408 -13.2171
RightLeg  11.2455 3.67551 1.01961
RightFoot  4.54458 -1.08151 7.96855
RightToes  0.000481921 0.542163 -0.142578
Spine  19.154 -2.28449 -0.694355
Spine1  7.50738 -4.2208 6.28069
HEad  5.04388 19.2898 -15.6193
LeftShoulder1  6.90404 -12.1489 -37.9535
LeftArm  -14.7724 -1.20115 -32.6619
LeftForeArm  -159.949 -53.1068 -168.781
LeftHand  -0.25398 0.0180481 5.50724
RightShoulder  4.76784 9.35208 31.1386
RightArm  0.457366 2.79104 40.1091
RightForeArm  179.347 55.097 166.375
RightHand  -0.384078 1.39243 -6.73423
LeftUpLeg  -8.73296 29.4087 0.308107
LeftLeg  22.4718 12.7933 6.40437
LeftFoot  -9.30252 0.11793 -3.48511
LeftToes  1.06244e-005 4.65869e-005 -8.65518e-006
884
root  34.1856 39.2763 6.60891 2.80969 74.338 3.50244
RightUpLeg  -13.688 -13.8945 -12.6111
RightLeg  14.983 2.09924 0.829438
RightFoot  2.25674 -0.950637 8.09301
RightToes  0.000481921 0.542163 -0.142578
Spine  20.3368 -2.43578 -2.84108
Spine1  6.25811 -5.83306 10.9546
HEad  3.10168 19.3416 -18.8309
LeftShoulder1  6.26404 -11.3657 -36.0332
LeftArm  -14.6488 -3.24399 -33.8845
LeftForeArm  -161.545 -52.8951 -168.763
LeftHand  -0.25398 0.0180481 5.50724
RightShoulder  4.80511 9.12846 32.0982
RightArm  -2.64677 -3.05737 38.2789
RightForeArm  178.314 52.5591 167.478
RightHand  -0.417101 1.48271 -7.21914
LeftUpLeg  -10.9109 26.2137 1.23339
LeftLeg  25.5044 11.7813 6.39288
LeftFoot  -9.83392 0.0986324 -3.02461
LeftToes  1.06244e-005 4.65869e-005 -8.65518e-006
885
root  34.1582 39.2186 6.9593 5.75049 79.2167 6.64661
RightUpLeg  -12.9142 -17.3402 -12.7266
RightLeg  17.3127 0.901993 0.278643
RightFoot  0.478118 -0.850894 8.23532
RightToes  0.000481921 0.542163 -0.142578
Spine  21.0027 -2.76218 -6.37673
Spine1  5.17864 -7.88779 15.9671
HEad  2.57218 19.54 -21.4615
LeftShoulder1  5.53226 -10.0173 -34.855
LeftArm  -13.1243 -4.28885 -34.917
LeftForeArm  -161.834 -52.3943 -168.95
LeftHand  -0.25398 0.0180481 5.50724
RightShoulder  4.64738 8.49903 32.7797
RightArm  -5.84824 -10.0184 37.1005
RightForeArm  179.327 50.3976 168.459
RightHand  -0.277498 0.422618 -5.51959
LeftUpLeg  -11.5017 24.2491 1.76879
LeftLeg  25.8745 9.01913 5.08526
LeftFoot  -9.51538 0.0987377 -2.62717
LeftToes  1.06244e-005 4.65869e-005 -8.65518e-006
886
root  34.2533 39.3442 7.40575 -5.61816 85.5585 -4.51294
RightUpLeg  -10.6754 -20.3303 -13.6901
RightLeg  17.9343 -1.88822 -0.688963
RightFoot  -0.565412 -0.769016 8.09835
RightToes  0.000481921 0.542163 -0.142578
Spine  21.2265 -3.42246 -10.0504
Spine1  3.76746 -9.92126 20.0751
HEad  3.72391 19.5259 -22.635
LeftShoulder1  4.88957 -8.50371 -34.6469
LeftArm  -9.85657 -4.39068 -35.9969
LeftForeArm  -160.607 -52.1864 -169.115
LeftHand  -0.25398 0.0180481 5.50724
RightShoulder  4.16327 7.23817 32.8146
RightArm  -9.28457 -17.6471 36.866
RightForeArm  -175.875 49.0208 169.319
RightHand  -0.0968611 0.0428644 -2.19527
LeftUpLeg  -11.0214 21.2154 1.70959
LeftLeg  23.9233 6.27658 3.38181
LeftFoot  -8.04319 0.120174 -2.49088
LeftToes  1.06244e-005 4.65869e-005 -8.65518e-006
